<?xml version="1.0" encoding="UTF-8" standalone="no"?>
<!-- Created with Inkscape (http://www.inkscape.org/) -->

<svg
   width="512"
   height="512"
   viewBox="0 0 512 512"
   version="1.1"
   id="svg1"
   xml:space="preserve"
   inkscape:version="1.3.2 (091e20e, 2023-11-25, custom)"
   sodipodi:docname="logo.svg"
   inkscape:export-filename="..\Desktop\logo.svg"
   inkscape:export-xdpi="96"
   inkscape:export-ydpi="96"
   xmlns:inkscape="http://www.inkscape.org/namespaces/inkscape"
   xmlns:sodipodi="http://sodipodi.sourceforge.net/DTD/sodipodi-0.dtd"
   xmlns:xlink="http://www.w3.org/1999/xlink"
   xmlns="http://www.w3.org/2000/svg"
   xmlns:svg="http://www.w3.org/2000/svg"><sodipodi:namedview
     id="namedview1"
     pagecolor="#ffffff"
     bordercolor="#000000"
     borderopacity="0.25"
     inkscape:showpageshadow="2"
     inkscape:pageopacity="0.0"
     inkscape:pagecheckerboard="0"
     inkscape:deskcolor="#d1d1d1"
     inkscape:document-units="px"
     inkscape:zoom="1.0730898"
     inkscape:cx="136.98761"
     inkscape:cy="149.5681"
     inkscape:window-width="1920"
     inkscape:window-height="991"
     inkscape:window-x="-9"
     inkscape:window-y="-9"
     inkscape:window-maximized="1"
     inkscape:current-layer="layer3" /><defs
     id="defs1"><linearGradient
       id="linearGradient29"
       inkscape:collect="always"><stop
         style="stop-color:#8d51f6;stop-opacity:1;"
         offset="0"
         id="stop28" /><stop
         style="stop-color:#220f87;stop-opacity:1;"
         offset="1"
         id="stop29" /></linearGradient><linearGradient
       id="swatch27"><stop
         style="stop-color:#341bcd;stop-opacity:1;"
         offset="0"
         id="stop27" /></linearGradient><linearGradient
       id="linearGradient20"
       inkscape:collect="always"><stop
         style="stop-color:#8d51f6;stop-opacity:1;"
         offset="0"
         id="stop20" /><stop
         style="stop-color:#220f87;stop-opacity:1;"
         offset="1"
         id="stop21" /></linearGradient><linearGradient
       id="linearGradient18"
       inkscape:collect="always"><stop
         style="stop-color:#c1bb17;stop-opacity:1;"
         offset="0"
         id="stop18" /><stop
         style="stop-color:#f4ff2f;stop-opacity:1;"
         offset="1"
         id="stop19" /></linearGradient><linearGradient
       inkscape:collect="always"
       xlink:href="#linearGradient18"
       id="linearGradient19"
       x1="158.32807"
       y1="313.2118"
       x2="491.29687"
       y2="313.2118"
       gradientUnits="userSpaceOnUse"
       gradientTransform="translate(-6.0006644,10.021356)" /><linearGradient
       inkscape:collect="always"
       xlink:href="#linearGradient20"
       id="linearGradient21"
       x1="131.82586"
       y1="153.09636"
       x2="380.17414"
       y2="153.09636"
       gradientUnits="userSpaceOnUse"
       gradientTransform="translate(-4e-6,4.760247)" /><linearGradient
       inkscape:collect="always"
       xlink:href="#linearGradient29"
       id="linearGradient28"
       gradientUnits="userSpaceOnUse"
       x1="52.074528"
       y1="268.94562"
       x2="177.95435"
       y2="268.94562"
       gradientTransform="translate(-4e-6,4.760247)" /></defs><g
     inkscape:groupmode="layer"
     id="layer3"
     inkscape:label="Layer 2"><path
       style="display:inline;fill:url(#linearGradient21);stroke:none"
       d="m 266.0178,218.10544 h 114.15634 c 0,0 -26.09288,-57.31114 -72.22136,-93.65479 C 261.8243,88.10699 165.14087,92.766432 131.82586,114.19987 c 15.84211,2.79567 63.36842,10.25078 93.42182,43.09984 29.12152,34.94582 40.77012,60.80573 40.77012,60.80573 z"
       id="path1" /><path
       style="display:inline;opacity:1;fill:url(#linearGradient28);stroke:none"
       d="m 173.22612,194.55948 c 0,0 -41.63323,41.21236 -30.21759,97.82459 7.68808,29.58746 17.47291,46.82739 34.94581,62.90247 -47.75928,0.69892 -108.565006,0.23297 -108.565006,0.23297 0,0 -18.63777,-35.64473 -17.239937,-75.01702 1.397833,-39.37229 4.659442,-67.09597 21.200463,-88.76238 46.8274,1.16486 104.13854,0.46595 104.13854,0.46595 z"
       id="path2" /><path
       id="path3"
       style="display:inline;fill:url(#linearGradient19);stroke:none"
       inkscape:label="path3"
       d="m 448.25512,191.74011 -40.77148,39.13867 26.32617,-0.46484 c 0,0 -82.44823,102.86086 -147.13867,103.80859 -0.005,0.0146 -0.0333,0.0607 -0.0371,0.0664 -0.0525,0.0701 -0.1025,0.14229 -0.1543,0.21289 -0.0122,0.0165 -0.0245,0.0327 -0.0371,0.0488 0.0625,7e-5 0.15978,0.004 0.22266,0.004 -0.16007,0.11215 -0.30042,0.20934 -0.47266,0.33008 -0.8111,1.76396 -12.36407,26.45525 -40.44336,60.15039 -30.05333,32.849 -77.57979,40.30394 -93.42187,43.09961 33.31493,21.4334 129.99856,26.09163 176.12695,-10.25195 38.9439,-30.68309 63.38915,-75.93371 70.12695,-89.40235 l 0.0274,0.002 c 0,0 58.49811,-89.89727 60.1289,-107.83594 h 25.85938 0.69922 z M 278.85668,334.35534 c -0.0226,3.3e-4 -0.0391,0.002 -0.0605,0.002 -10e-4,6.1e-4 -0.003,8.5e-4 -0.004,0.002 0.0169,0.001 0.0338,0.002 0.0508,0.004 0.006,-0.004 0.007,-0.004 0.0137,-0.008 z m 7.17188,0.17188 c -0.0151,0.008 -0.0298,0.0158 -0.0449,0.0234 0.01,1e-5 0.0233,-2e-5 0.0332,0 0.004,-0.008 0.008,-0.0157 0.0117,-0.0234 z m -9.39453,0.0156 c -0.002,10e-4 -0.005,0.002 -0.008,0.004 0.002,10e-6 0.006,-1e-5 0.008,0 -2.6e-4,-0.001 2.7e-4,-0.003 0,-0.004 z" /></g></svg>
