<?xml version="1.0" standalone="no"?>
<svg xmlns:xlink="http://www.w3.org/1999/xlink" id="wave" style="transform:rotate(0deg); transition: 0.3s" viewBox="0 0 1440 490" version="1.1" xmlns="http://www.w3.org/2000/svg"><defs><linearGradient id="sw-gradient-0" x1="0" x2="0" y1="1" y2="0"><stop stop-color="rgba(232.602, 187.488, 38.68, 1)" offset="0%"/><stop stop-color="rgba(253.093, 231.073, 26.367, 1)" offset="100%"/></linearGradient></defs><path style="transform:translate(0, 0px); opacity:1" fill="url(#sw-gradient-0)" d="M0,98L40,138.8C80,180,160,261,240,253.2C320,245,400,147,480,147C560,147,640,245,720,285.8C800,327,880,310,960,261.3C1040,212,1120,131,1200,114.3C1280,98,1360,147,1440,138.8C1520,131,1600,65,1680,49C1760,33,1840,65,1920,81.7C2000,98,2080,98,2160,130.7C2240,163,2320,229,2400,236.8C2480,245,2560,196,2640,212.3C2720,229,2800,310,2880,359.3C2960,408,3040,425,3120,400.2C3200,376,3280,310,3360,310.3C3440,310,3520,376,3600,400.2C3680,425,3760,408,3840,408.3C3920,408,4000,425,4080,416.5C4160,408,4240,376,4320,367.5C4400,359,4480,376,4560,326.7C4640,278,4720,163,4800,98C4880,33,4960,16,5040,24.5C5120,33,5200,65,5280,89.8C5360,114,5440,131,5520,122.5C5600,114,5680,82,5720,65.3L5760,49L5760,490L5720,490C5680,490,5600,490,5520,490C5440,490,5360,490,5280,490C5200,490,5120,490,5040,490C4960,490,4880,490,4800,490C4720,490,4640,490,4560,490C4480,490,4400,490,4320,490C4240,490,4160,490,4080,490C4000,490,3920,490,3840,490C3760,490,3680,490,3600,490C3520,490,3440,490,3360,490C3280,490,3200,490,3120,490C3040,490,2960,490,2880,490C2800,490,2720,490,2640,490C2560,490,2480,490,2400,490C2320,490,2240,490,2160,490C2080,490,2000,490,1920,490C1840,490,1760,490,1680,490C1600,490,1520,490,1440,490C1360,490,1280,490,1200,490C1120,490,1040,490,960,490C880,490,800,490,720,490C640,490,560,490,480,490C400,490,320,490,240,490C160,490,80,490,40,490L0,490Z"/><defs><linearGradient id="sw-gradient-1" x1="0" x2="0" y1="1" y2="0"><stop stop-color="rgba(255, 214.487, 9.287, 1)" offset="0%"/><stop stop-color="rgba(238, 255, 19, 1)" offset="100%"/></linearGradient></defs><path style="transform:translate(0, 50px); opacity:0.9" fill="url(#sw-gradient-1)" d="M0,0L40,49C80,98,160,196,240,236.8C320,278,400,261,480,285.8C560,310,640,376,720,334.8C800,294,880,147,960,81.7C1040,16,1120,33,1200,49C1280,65,1360,82,1440,138.8C1520,196,1600,294,1680,334.8C1760,376,1840,359,1920,367.5C2000,376,2080,408,2160,424.7C2240,441,2320,441,2400,416.5C2480,392,2560,343,2640,334.8C2720,327,2800,359,2880,375.7C2960,392,3040,392,3120,383.8C3200,376,3280,359,3360,343C3440,327,3520,310,3600,285.8C3680,261,3760,229,3840,220.5C3920,212,4000,229,4080,196C4160,163,4240,82,4320,98C4400,114,4480,229,4560,261.3C4640,294,4720,245,4800,187.8C4880,131,4960,65,5040,73.5C5120,82,5200,163,5280,196C5360,229,5440,212,5520,179.7C5600,147,5680,98,5720,73.5L5760,49L5760,490L5720,490C5680,490,5600,490,5520,490C5440,490,5360,490,5280,490C5200,490,5120,490,5040,490C4960,490,4880,490,4800,490C4720,490,4640,490,4560,490C4480,490,4400,490,4320,490C4240,490,4160,490,4080,490C4000,490,3920,490,3840,490C3760,490,3680,490,3600,490C3520,490,3440,490,3360,490C3280,490,3200,490,3120,490C3040,490,2960,490,2880,490C2800,490,2720,490,2640,490C2560,490,2480,490,2400,490C2320,490,2240,490,2160,490C2080,490,2000,490,1920,490C1840,490,1760,490,1680,490C1600,490,1520,490,1440,490C1360,490,1280,490,1200,490C1120,490,1040,490,960,490C880,490,800,490,720,490C640,490,560,490,480,490C400,490,320,490,240,490C160,490,80,490,40,490L0,490Z"/></svg>